# AST/ASF file generated using VICON BodyLanguage
# -----------------------------------------------
:version 1.10
:name VICON
:units
  mass 1.0
  length 0.45
  angle deg
:documentation
   .ast/.asf automatically generated from VICON data using
   VICON BodyBuilder and BodyLanguage model FoxedUp or BRILLIANT.MOD
:root
   order TX TY TZ RX RY RZ
   axis XYZ
   position 0 0 0  
   orientation 0 0 0 
:bonedata
  begin
     id 1 
     name lhipjoint
     direction 0.646657 -0.683706 0.338203 
     length 2.4948 
     axis 0 0 0  XYZ
  end
  begin
     id 2 
     name lfemur
     direction 0.34202 -0.939693 0  
     length 6.79491  
     axis 0 0 20  XYZ
    dof rx ry rz
    limits (-160.0 20.0)
           (-70.0 70.0)
           (-60.0 70.0)
  end
  begin
     id 3 
     name ltibia
     direction 0.34202 -0.939693 0   
     length 7.56807   
     axis 0 0 20   XYZ
    dof rx
    limits (-10.0 170.0)
  end
  begin
     id 4 
     name lfoot
     direction 0.0679796 -0.186772 0.980048   
     length 2.53018   
     axis -90 7.62852e-016 20   XYZ
    dof rx rz
    limits (-45.0 90.0)
           (-70.0 20.0)
  end
  begin
     id 5 
     name ltoes
     direction 1.53625e-011 -4.21881e-011 1   
     length 1.26912   
     axis -90 7.62852e-016 20   XYZ
    dof rx
    limits (-90.0 20.0)
  end
  begin
     id 6 
     name rhipjoint
     direction -0.618868 -0.704065 0.348274   
     length 2.42265  
     axis 0 0 0  XYZ 
  end
  begin
     id 7 
     name rfemur
     direction -0.34202 -0.939693 0   
     length 6.73814   
     axis 0 0 -20   XYZ
    dof rx ry rz
    limits (-160.0 20.0)
           (-70.0 70.0)
           (-70.0 60.0)
  end
  begin
     id 8 
     name rtibia
     direction -0.34202 -0.939693 0   
     length 7.66799   
     axis 0 0 -20   XYZ
    dof rx
    limits (-10.0 170.0)
 end
 begin
     id 9 
     name rfoot
     direction -0.0727352 -0.199838 0.977125   
     length 2.57224  
     axis -90 -7.62852e-016 -20   XYZ
    dof rx rz
    limits (-45.0 90.0)
           (-20.0 70.0)
  end
  begin
     id 10 
     name rtoes
     direction -1.53501e-011 -4.21858e-011 1   
     length 1.28858   
     axis -90 -7.62852e-016 -20   XYZ
    dof rx
    limits (-90.0 20.0)
  end
  begin
     id 11 
     name lowerback
     direction -0.0172471 0.995767 -0.0902851   
     length 2.20206   
     axis 0 0 0   XYZ
    dof rx ry rz
    limits (-20.0 45.0)
           (-30.0 30.0)
           (-30.0 30.0)
  end
  begin
     id 12 
     name upperback
     direction -0.000110737 0.999714 0.0239043   
     length 2.19523   
     axis 0 0 0   XYZ
    dof rx ry rz
    limits (-20.0 45.0)
           (-30.0 30.0)
           (-30.0 30.0)
  end
  begin
     id 13 
     name thorax
     direction 0.00704869 0.997783 0.0661741   
     length 2.21977   
     axis 0 0 0   XYZ
    dof rx ry rz
    limits (-20.0 45.0)
           (-30.0 30.0)
           (-30.0 30.0)
  end
  begin
     id 14 
     name lowerneck
     direction -0.00407501 0.995527 0.0943846   
     length 1.83142   
     axis 0 0 0   XYZ
    dof rx ry rz
    limits (-20.0 45.0)
           (-30.0 30.0)
           (-30.0 30.0)
  end
  begin
     id 15 
     name upperneck
     direction 0.0640586 0.986486 -0.150807   
     length 1.84616   
     axis 0 0 0   XYZ
    dof rx ry rz
    limits (-20.0 45.0)
           (-30.0 30.0)
           (-30.0 30.0)
  end
  begin
     id 16
     name head
     direction 0.0188017 0.99791 -0.0618239  
     length 1.85932  
     axis 0 0 0   XYZ
    dof rx ry rz
    limits (-20.0 45.0)
           (-30.0 30.0)
           (-30.0 30.0)
  end
  begin
     id 17 
     name lclavicle
     direction 0.976074 0.206905 0.066852  
     length 3.81043  
     axis 0 0 0   XYZ
    dof ry rz
    limits (-20.0 10.0)
           (0.0 20.0)
  end
  begin
     id 18 
     name lhumerus
     direction 1 -4.48971e-011 1.86916e-027   
     length 5.37587   
     axis 180 -30 -90   XYZ
    dof rx ry rz
    limits (-60.0 90.0)
           (-90.0 90.0)
           (-90.0 90.0)
  end
  begin
     id 19
     name lradius
     direction 1 -4.48968e-011 1.69187e-027   
     length 3.35977   
     axis 180 -30 -90   XYZ
    dof rx
    limits (-10.0 170.0)
  end
  begin
     id 20
     name lwrist
     direction 1 -4.48968e-011 5.8978e-027   
     length 1.67988   
     axis -3.27506e-015 90 90   XYZ
    dof ry
    limits (-180.0 0.0)
 end
  begin
     id 21 
     name lhand
     direction 1 -4.49028e-011 1.18071e-026   
     length 0.561859   
     axis -7.52654e-015 90 90   XYZ
    dof rx rz
    limits (-90.0 90.0)
           (-45.0 45.0)
  end
  begin
     id 22 
     name lfingers
     direction 1 -4.48927e-011 2.35758e-026   
     length 0.452985   
     axis -1.50534e-014 90 90   XYZ
    dof rx
    limits (0.0 90.0)
  end
  begin
     id 23
     name lthumb
     direction 0.707107 -6.34898e-011 0.707107   
     length 0.650399   
     axis -90 45 5.69224e-014   XYZ
    dof rx rz
    limits (-45.0 45.0)
           (-45.0 45.0)
  end
  begin
     id 24 
     name rclavicle
     direction -0.988403 0.151789 0.00439714   
     length 3.6942  
     axis 0 0 0   XYZ 
    dof ry rz
    limits (-10.0 20.0)
           (-20.0 0.0)
  end
  begin
     id 25 
     name rhumerus
     direction -1 -4.48978e-011 1.62495e-027  
     length 5.22819   
     axis 180 30 90   XYZ
    dof rx ry rz
    limits (-90.0 60.0)
           (-90.0 90.0)
           (-90.0 90.0)
  end
  begin
     id 26 
     name rradius
     direction -1 -4.48961e-011 3.47796e-027   
     length 3.40764   
     axis 180 30 90   XYZ
    dof rx
    limits (-10.0 170.0)
  end
  begin
     id 27 
     name rwrist
     direction -1 -4.48949e-011 5.89602e-027   
     length 1.70382   
     axis -3.27506e-015 -90 -90   XYZ
    dof ry
    limits (-180.0 0.0)
  end
  begin
     id 28
     name rhand
     direction -1 -4.48977e-011 1.17973e-026   
     length 0.583255   
     axis -7.52654e-015 -90 -90   XYZ
    dof rx rz
    limits (-90.0 90.0)
           (-45.0 45.0)
  end
  begin
     id 29
     name rfingers
     direction -1 -4.49099e-011 2.36408e-026   
     length 0.470235   
     axis -1.50534e-014 -90 -90   XYZ
    dof rx
    limits (0.0 90.0)
  end
  begin
     id 30
     name rthumb
     direction -0.707107 -6.35011e-011 0.707107   
     length 0.675167   
     axis -90 -45 -5.69224e-014   XYZ
    dof rx rz
    limits (-45.0 45.0)
           (-45.0 45.0)
  end
:hierarchy
  begin
    root lhipjoint rhipjoint lowerback
    lhipjoint lfemur
    lfemur ltibia
    ltibia lfoot
    lfoot ltoes
    rhipjoint rfemur
    rfemur rtibia
    rtibia rfoot
    rfoot rtoes
    lowerback upperback
    upperback thorax
    thorax lowerneck lclavicle rclavicle
    lowerneck upperneck
    upperneck head
    lclavicle lhumerus
    lhumerus lradius
    lradius lwrist
    lwrist lhand lthumb
    lhand lfingers
    rclavicle rhumerus
    rhumerus rradius
    rradius rwrist
    rwrist rhand rthumb
    rhand rfingers
  end

#!OML:ASF G:\JayActor3\Patient Classification 1\Patient 1\Session 2\male.ASF
:FULLY-SPECIFIED
:DEGREES
672
root 19.2472 16.7291 -6.66996 811.004 -86.864 -807.642
lowerback -1.4515 1.21506 3.11814
upperback 4.25458 1.42353 0.292291
thorax 5.2882 0.804859 -1.35867
lowerneck -10.2402 -3.0368 -2.5906
upperneck 1.99296 -4.18246 7.48412
head 2.70819 -1.88499 2.69249
rclavicle 1.3741e-014 -4.67144e-015
rhumerus -25.9434 -3.07175 -88.8977
rradius 25.0603
rwrist 1.06098
rhand -24.1638 1.06012
rfingers 7.12502
rthumb 2.31914 -28.907
lclavicle 1.3741e-014 -4.67144e-015
lhumerus -35.8782 7.42726 84.4544
lradius 21.6596
lwrist 4.3556
lhand -17.6503 16.4028
lfingers 7.12502
lthumb 8.60782 46.2073
rfemur 7.03536 0.665011 26.3937
rtibia 28.4827
rfoot -13.0728 5.072
rtoes 18.2217
lfemur -27.0927 2.09225 -20.0763
ltibia 30.0344
lfoot -5.81671 -0.285196
ltoes 0.659466
673
root 19.1313 16.738 -6.64762 814.73 -86.8825 -811.369
lowerback -1.53385 1.21982 3.08224
upperback 4.22512 1.43367 0.224394
thorax 5.30552 0.810555 -1.40694
lowerneck -10.2581 -3.00474 -2.59365
upperneck 2.13555 -4.14366 7.44527
head 2.75661 -1.86331 2.68299
rclavicle 1.47101e-014 -6.36111e-015
rhumerus -26.2944 -3.44191 -88.7358
rradius 24.8517
rwrist 1.2611
rhand -24.2336 0.794812
rfingers 7.12502
rthumb 2.25173 -29.1731
lclavicle 1.47101e-014 -6.36111e-015
lhumerus -35.7018 7.60447 84.2877
lradius 21.5117
lwrist 4.20656
lhand -17.6744 16.4237
lfingers 7.12502
lthumb 8.58455 46.2291
rfemur 6.70105 0.570649 26.0842
rtibia 29.6281
rfoot -11.9658 5.333
rtoes 19.0372
lfemur -26.6893 2.01312 -20.1553
ltibia 30.1599
lfoot -5.89664 -0.0564147
ltoes 1.92607
674
root 19.0164 16.7471 -6.62512 818.351 -86.9077 -814.996
lowerback -1.60081 1.21817 3.02566
upperback 4.18937 1.43708 0.15393
thorax 5.30653 0.811879 -1.44713
lowerneck -10.2632 -2.97147 -2.61054
upperneck 2.28021 -4.10244 7.42021
head 2.80424 -1.8404 2.68109
rclavicle -2.09469e-014 5.56597e-015
rhumerus -26.6317 -3.81403 -88.5582
rradius 24.6144
rwrist 1.44137
rhand -24.2711 0.576833
rfingers 7.12502
rthumb 2.21556 -29.3914
lclavicle -2.09469e-014 5.56597e-015
lhumerus -35.5251 7.76928 84.1349
lradius 21.4039
lwrist 4.10028
lhand -17.7131 16.4444
lfingers 7.12502
lthumb 8.54724 46.2514
rfemur 6.27536 0.465379 25.7404
rtibia 30.9121
rfoot -10.7746 5.53483
rtoes 20.1083
lfemur -26.257 1.91484 -20.2586
ltibia 30.2318
lfoot -6.00605 0.182151
ltoes 3.00102
675
root 18.9028 16.7559 -6.60286 821.89 -86.9431 -818.55
lowerback -1.6483 1.21035 2.94178
upperback 4.1494 1.43433 0.0810324
thorax 5.29089 0.808833 -1.47545
lowerneck -10.243 -2.93566 -2.63405
upperneck 2.41156 -4.05695 7.40398
head 2.84291 -1.81596 2.6838
rclavicle 1.43622e-014 6.95746e-015
rhumerus -26.9543 -4.19119 -88.3643
rradius 24.355
rwrist 1.62295
rhand -24.2812 0.408149
rfingers 7.12502
rthumb 2.2058 -29.5602
lclavicle 1.43622e-014 6.95746e-015
lhumerus -35.344 7.91977 83.9961
lradius 21.3331
lwrist 4.03024
lhand -17.7573 16.4646
lfingers 7.12502
lthumb 8.50451 46.2733
rfemur 5.75849 0.356799 25.3657
rtibia 32.3399
rfoot -9.53069 5.6442
rtoes 21.252
lfemur -25.7958 1.797 -20.3853
ltibia 30.2573
lfoot -6.17101 0.418673
ltoes 3.73726
676
root 18.7909 16.7645 -6.58118 825.427 -86.9912 -822.106
lowerback -1.68571 1.1972 2.82444
upperback 4.10918 1.42635 0.00569021
thorax 5.26802 0.80178 -1.4881
lowerneck -10.2119 -2.89916 -2.65907
upperneck 2.53638 -4.01014 7.38935
head 2.87735 -1.79122 2.68745
rclavicle 2.7482e-014 -2.18663e-015
rhumerus -27.2614 -4.56493 -88.1579
rradius 24.091
rwrist 1.80985
rhand -24.2605 0.278014
rfingers 7.12502
rthumb 2.22574 -29.6901
lclavicle 2.7482e-014 -2.18663e-015
lhumerus -35.1511 8.04717 83.876
lradius 21.2997
lwrist 4.00124
lhand -17.805 16.4707
lfingers 7.12502
lthumb 8.45854 46.2813
rfemur 5.14703 0.256144 24.9643
rtibia 33.9107
rfoot -8.26106 5.63524
rtoes 22.354
lfemur -25.3119 1.66276 -20.535
ltibia 30.2428
lfoot -6.39586 0.643867
ltoes 4.11636
677
root 18.6805 16.7724 -6.5605 829.045 -87.0475 -825.75
lowerback -1.71397 1.18122 2.67193
upperback 4.07142 1.41618 -0.0688991
thorax 5.24138 0.792136 -1.48057
lowerneck -10.1737 -2.86412 -2.68018
upperneck 2.65185 -3.96498 7.36936
head 2.90705 -1.7678 2.6884
rclavicle 1.98785e-016 -1.78906e-015
rhumerus -27.5584 -4.92782 -87.9402
rradius 23.8453
rwrist 1.99955
rhand -24.2088 0.169493
rfingers 7.12502
rthumb 2.27569 -29.7981
lclavicle 1.98785e-016 -1.78906e-015
lhumerus -34.9402 8.14856 83.7781
lradius 21.2983
lwrist 4.00457
lhand -17.8454 16.4765
lfingers 7.12502
lthumb 8.41951 46.2887
rfemur 4.4516 0.172597 24.5468
rtibia 35.6154
rfoot -6.99021 5.51278
rtoes 23.4058
lfemur -24.8073 1.52478 -20.7008
ltibia 30.1948
lfoot -6.67371 0.851596
ltoes 4.26255
678
root 18.5718 16.7796 -6.54114 832.924 -87.1101 -829.664
lowerback -1.73216 1.16488 2.48069
upperback 4.04005 1.40712 -0.142878
thorax 5.21466 0.781458 -1.45075
lowerneck -10.1366 -2.83038 -2.7011
upperneck 2.76152 -3.92123 7.34868
head 2.93503 -1.74525 2.68895
rclavicle 1.85367e-014 -9.93923e-016
rhumerus -27.8459 -5.26529 -87.7177
rradius 23.6282
rwrist 2.17527
rhand -24.1338 0.0897495
rfingers 7.12502
rthumb 2.34818 -29.8771
lclavicle 1.85367e-014 -9.93923e-016
lhumerus -34.7105 8.21011 83.7066
lradius 21.3324
lwrist 4.04777
lhand -17.88 16.4738
lfingers 7.12502
lthumb 8.38618 46.2874
rfemur 3.68356 0.112177 24.1166
rtibia 37.4409
rfoot -5.73524 5.27785
rtoes 24.3201
lfemur -24.2789 1.40417 -20.8844
ltibia 30.1175
lfoot -6.98505 1.03677
ltoes 4.22608
679
root 18.4647 16.7862 -6.52341 837.183 -87.1701 -833.972
lowerback -1.73855 1.15023 2.25207
upperback 4.01799 1.40163 -0.214717
thorax 5.19011 0.771001 -1.39764
lowerneck -10.1178 -2.79937 -2.71501
upperneck 2.87734 -3.88152 7.31741
head 2.96827 -1.72456 2.6843
rclavicle -1.54058e-015 1.21259e-014
rhumerus -28.1247 -5.56565 -87.5001
rradius 23.4523
rwrist 2.32237
rhand -24.0557 0.039213
rfingers 7.12502
rthumb 2.42354 -29.9268
lclavicle -1.54058e-015 1.21259e-014
lhumerus -34.45 8.24174 83.6589
lradius 21.388
lwrist 4.11152
lhand -17.9072 16.4757
lfingers 7.12502
lthumb 8.35989 46.2903
rfemur 2.85247 0.0799186 23.6839
rtibia 39.3692
rfoot -4.50338 4.93656
rtoes 25.0793
lfemur -23.727 1.32596 -21.0817
ltibia 30.0139
lfoot -7.29726 1.19085
ltoes 4.17182
680
root 18.3593 16.7921 -6.50739 841.915 -87.2184 -838.768
lowerback -1.73036 1.13876 1.98902
upperback 4.00479 1.40157 -0.284345
thorax 5.16582 0.76178 -1.32278
lowerneck -10.0991 -2.76849 -2.72213
upperneck 2.98332 -3.84212 7.28286
head 2.99786 -1.70431 2.67716
rclavicle -8.19987e-015 -6.36111e-015
rhumerus -28.3986 -5.80783 -87.3001
rradius 23.3235
rwrist 2.41067
rhand -23.9956 0.00869392
rfingers 7.12502
rthumb 2.48161 -29.9566
lclavicle -8.19987e-015 -6.36111e-015
lhumerus -34.1636 8.23639 83.6353
lradius 21.4692
lwrist 4.19766
lhand -17.9432 16.488
lfingers 7.12502
lthumb 8.32519 46.304
rfemur 1.96856 0.078515 23.2547
rtibia 41.3805
rfoot -3.29282 4.50468
rtoes 25.7552
lfemur -23.151 1.30506 -21.2899
ltibia 29.8848
lfoot -7.60121 1.30934
ltoes 4.0748
